<?xml version="1.0" ?><!DOCTYPE svg  PUBLIC '-//W3C//DTD SVG 1.1//EN'  'http://www.w3.org/Graphics/SVG/1.1/DTD/svg11.dtd'><svg height="43.3492mm" style="shape-rendering:geometricPrecision; text-rendering:geometricPrecision; image-rendering:optimizeQuality; fill-rule:evenodd; clip-rule:evenodd" version="1.1" viewBox="0 0 4335 4335" width="43.3492mm" xml:space="preserve" xmlns="http://www.w3.org/2000/svg" xmlns:xlink="http://www.w3.org/1999/xlink"><defs><style type="text/css">
   <![CDATA[
    .fil1 {fill:#BCBCBC;fill-rule:nonzero}
    .fil0 {fill:url(#id0)}
    .fil2 {fill:url(#id1);fill-rule:nonzero}
   ]]>
  </style><linearGradient gradientUnits="userSpaceOnUse" id="id0" x1="2170.9" x2="2170.9" y1="4.27" y2="4339.19"><stop offset="0" style="stop-color:#4B68A0"/><stop offset="1" style="stop-color:#3B5998"/></linearGradient><linearGradient gradientUnits="userSpaceOnUse" id="id1" x1="2125.58" x2="2125.58" y1="788.17" y2="3571.57"><stop offset="0" style="stop-color:white"/><stop offset="0.988235" style="stop-color:#F0F0F0"/><stop offset="1" style="stop-color:#E1E1E1"/></linearGradient></defs><g id="Warstwa_x0020_1"><rect class="fil0" height="4335" id="Prostokąt_x0020_3" width="4335" x="3" y="4"/><path class="fil1" d="M2333 866c-88,0 -173,11 -272,49 -201,81 -303,272 -303,567l0 287 -282 0 0 483 282 0 0 1397 575 0 0 -1397 392 0 53 -483 -444 0 0 -217c0,-66 7,-116 25,-143 25,-42 74,-63 152,-63l261 0 0 -480 -437 0z"/><path class="fil2" d="M2332 788c-88,0 -173,11 -272,49 -201,81 -303,272 -303,567l0 287 -282 0 0 483 282 0 0 1397 575 0 0 -1397 392 0 53 -483 -445 0 0 -217c0,-66 7,-116 25,-143 25,-42 74,-63 152,-63l261 0 0 -480 -437 0z"/></g></svg>