<?xml version="1.0" ?><!DOCTYPE svg  PUBLIC '-//W3C//DTD SVG 1.1//EN'  'http://www.w3.org/Graphics/SVG/1.1/DTD/svg11.dtd'><svg height="43.3492mm" style="shape-rendering:geometricPrecision; text-rendering:geometricPrecision; image-rendering:optimizeQuality; fill-rule:evenodd; clip-rule:evenodd" version="1.1" viewBox="0 0 4335 4335" width="43.3492mm" xml:space="preserve" xmlns="http://www.w3.org/2000/svg" xmlns:xlink="http://www.w3.org/1999/xlink"><defs><style type="text/css">
   <![CDATA[
    .fil1 {fill:#BCBCBC;fill-rule:nonzero}
    .fil0 {fill:url(#id0)}
    .fil2 {fill:url(#id1);fill-rule:nonzero}
   ]]>
  </style><linearGradient gradientUnits="userSpaceOnUse" id="id0" x1="2163.54" x2="2163.54" y1="0.64" y2="4335.56"><stop offset="0" style="stop-color:#DD4141"/><stop offset="1" style="stop-color:#C50F0F"/></linearGradient><linearGradient gradientUnits="userSpaceOnUse" id="id1" x1="2178.74" x2="2178.74" y1="1046.76" y2="3184.66"><stop offset="0" style="stop-color:white"/><stop offset="0.988235" style="stop-color:#F2F2F2"/><stop offset="1" style="stop-color:#E5E5E5"/></linearGradient></defs><g id="Warstwa_x0020_1"><rect class="fil0" height="4335" id="Prostokąt_x0020_3" width="4335" x="-4" y="1"/><path class="fil1" d="M3217 1704c97,0 193,0 290,0 0,97 1,195 2,292 97,1 195,1 292,2 0,97 0,194 0,291 -97,0 -195,1 -292,1 -1,98 -1,195 -2,292 -97,0 -194,0 -291,0 -1,-98 -1,-195 -2,-292 -97,-1 -195,-1 -292,-2 0,-97 0,-194 0,-291 97,-1 194,-1 292,-2 1,-97 1,-195 2,-292zm-2633 439c-20,-527 442,-1014 969,-1021 269,-23 531,82 734,252 -83,92 -168,183 -259,267 -179,-109 -395,-192 -604,-118 -338,96 -542,495 -417,825 103,345 523,535 852,390 170,-61 283,-218 332,-387 -195,-4 -390,-1 -586,-7 0,-116 -1,-232 0,-348 326,0 652,-1 978,1 20,285 -22,589 -207,818 -253,326 -721,422 -1102,294 -404,-133 -698,-540 -689,-966z"/><path class="fil2" d="M3213 1651c97,0 193,0 290,0 0,97 1,195 2,292 97,1 195,1 292,2 0,97 0,194 0,291 -97,0 -195,1 -292,1 -1,98 -1,195 -2,292 -97,0 -194,0 -291,0 -1,-98 -1,-195 -2,-292 -97,-1 -195,-1 -292,-2 0,-97 0,-194 0,-291 97,-1 194,-1 292,-2 1,-97 1,-195 2,-292zm-2633 439c-20,-527 442,-1014 969,-1021 269,-23 531,82 734,252 -83,92 -168,183 -259,267 -179,-109 -395,-192 -604,-118 -338,96 -542,495 -417,825 103,345 523,535 852,390 170,-61 283,-218 332,-387 -195,-4 -390,-1 -586,-7 0,-116 -1,-232 0,-348 326,0 652,-1 978,1 20,285 -22,589 -207,818 -253,326 -721,422 -1102,294 -404,-133 -698,-540 -689,-966z"/></g></svg>